<svg width="23" height="17" viewBox="0 0 23 17" fill="none" xmlns="http://www.w3.org/2000/svg">
<path fill-rule="evenodd" clip-rule="evenodd" d="M3 0C1.34277 0 0 1.34326 0 3V4.5H2V3C2 2.44775 2.44727 2 3 2H20C20.5527 2 21 2.44775 21 3V14C21 14.5522 20.5527 15 20 15H12.5V17H20C21.6572 17 23 15.6567 23 14V3C23 1.34326 21.6572 0 20 0H3ZM2.96094 16.5166C2.97461 16.6055 2.98535 16.6948 2.99219 16.7847C2.99707 16.8564 3 16.9282 3 17H0V14C0.393555 14 0.78418 14.0776 1.14844 14.2285C1.51172 14.3789 1.84277 14.6001 2.12109 14.8789C2.30664 15.0645 2.4668 15.2729 2.59766 15.4995C2.66309 15.6128 2.72168 15.7305 2.77148 15.8521C2.86035 16.0659 2.92383 16.2891 2.96094 16.5166ZM11 17C11 15.5557 10.7158 14.125 10.1631 12.7905C9.61035 11.4561 8.7998 10.2432 7.77832 9.22168C6.75684 8.2002 5.54395 7.39014 4.20996 6.8374C2.875 6.28467 1.44434 6 0 6V8.42969C0.239258 8.42969 0.477539 8.43945 0.714844 8.45947C0.943359 8.479 1.1709 8.50732 1.39648 8.54443C2.04102 8.65088 2.67285 8.83105 3.2793 9.08252C3.53906 9.18994 3.79199 9.30957 4.03906 9.44141C4.78125 9.83838 5.46191 10.3428 6.05957 10.9399C6.56641 11.4463 7.00586 12.0127 7.37012 12.626C7.57812 12.9766 7.76172 13.3423 7.91797 13.7202C8.34863 14.7603 8.57031 15.8745 8.57031 17H11ZM6.4668 14.3213C6.81934 15.1704 7 16.0806 7 17H4.96387C4.96387 16.3481 4.83594 15.7026 4.58594 15.1001C4.33691 14.498 3.9707 13.9507 3.50977 13.4897C3.25586 13.2354 2.97559 13.0103 2.67383 12.8174C2.42871 12.6606 2.16992 12.5254 1.89941 12.4136C1.29785 12.1646 0.652344 12.0361 0 12.0361V10C0.918945 10 1.8291 10.1812 2.67871 10.5327C3.12988 10.7197 3.55859 10.9526 3.95898 11.2271C4.3125 11.4697 4.64453 11.7451 4.9502 12.0503C5.29395 12.3945 5.60059 12.7729 5.86523 13.1792C6.10059 13.5396 6.30176 13.9219 6.4668 14.3213Z" fill="white"/>
</svg>
